# xmcd CD database file
#
# Track frame offsets:
#	150
#	12887
#	24590
#	36705
#	47850
#	61082
#	70875
#	82147
#	92867
#	105322
#	115457
#	126115
#	138975
#	147920
#	159315
#	171675
#	185267
#	199010
#	211202
#	223617
#	235470
#	249472
#	261187
#	274555
#	287117
#	298980
#
# Disc length: 4137 seconds
#
# Revision: 3
# Processed by: cddbd v1.5.2PL0 Copyright (c) Steve Scherf et al.
# Submitted via: CDex 1.70beta2
#
DISCID=9610271a
DTITLE=Robert Mitchum - That Man
DYEAR=1995
DGENRE=Country
TTITLE0=You Deserve Each Other
TTITLE1=Walker's Woods
TTITLE2=Wheels (It's Rollin' Time Again)
TTITLE3=In My Place
TTITLE4=Ballad Of Thunder Road
TTITLE5=That Man Right There
TTITLE6=Little Ole Wine Drinker Me
TTITLE7=Ricardo's Mountain
TTITLE8=Sunny
TTITLE9=Little White Lies
TTITLE10=Whippoorwill
TTITLE11=Gotta Travel On
TTITLE12=My Honey's Lovin' Arms
TTITLE13=The Ballad Of Thunder Road
TTITLE14=Jean And Dinah
TTITLE15=From A Logical Point Of View
TTITLE16=Not Me
TTITLE17=What Is This Generation Coming To
TTITLE18=Tic, Tic, Tic (The Lost Watch)
TTITLE19=Beauty Is Only Skin Deep
TTITLE20=I Learn A Merengue, Mama
TTITLE21=Take Me Down To Lovers Row
TTITLE22=Mama Looka Boo Boo (Shut You Mouth - Go Away)
TTITLE23=Coconut Water
TTITLE24=Matilda, Matilda
TTITLE25=They Dance All Night
EXTD=YEAR: 1995
EXTT0=
EXTT1=
EXTT2=
EXTT3=
EXTT4=
EXTT5=
EXTT6=
EXTT7=
EXTT8=
EXTT9=
EXTT10=
EXTT11=
EXTT12=
EXTT13=
EXTT14=
EXTT15=
EXTT16=
EXTT17=
EXTT18=
EXTT19=
EXTT20=
EXTT21=
EXTT22=
EXTT23=
EXTT24=
EXTT25=
PLAYORDER=
